<?xml version="1.0" encoding="UTF-8" standalone="no"?>
<svg
   xmlns:dc="http://purl.org/dc/elements/1.1/"
   xmlns:cc="http://creativecommons.org/ns#"
   xmlns:rdf="http://www.w3.org/1999/02/22-rdf-syntax-ns#"
   xmlns:svg="http://www.w3.org/2000/svg"
   xmlns="http://www.w3.org/2000/svg"
   width="1023.3175"
   height="1024.0002"
   viewBox="0 0 270.75276 270.93339"
   version="1.1"
   id="svg8">
  <title
     id="title55">Victoria bus logo</title>
  <defs
     id="defs2" />
  <metadata
     id="metadata5">
    <rdf:RDF>
      <cc:Work
         rdf:about="">
        <dc:format>image/svg+xml</dc:format>
        <dc:type
           rdf:resource="http://purl.org/dc/dcmitype/StillImage" />
        <dc:title>Victoria bus logo</dc:title>
        <dc:date>17 July 2017</dc:date>
        <dc:creator>
          <cc:Agent>
            <dc:title>Pizza1016</dc:title>
          </cc:Agent>
        </dc:creator>
        <dc:publisher>
          <cc:Agent>
            <dc:title>Wikipedia</dc:title>
          </cc:Agent>
        </dc:publisher>
        <dc:source>Public Transport Victoria - https://static.ptv.vic.gov.au/public-transport-victoria/1492646643/WARRAGUL-DROUIN_network-map.pdf</dc:source>
        <dc:subject>
          <rdf:Bag>
            <rdf:li>victoria bus logo</rdf:li>
          </rdf:Bag>
        </dc:subject>
        <dc:coverage>Victoria, Australia</dc:coverage>
        <dc:description>Logo representing the metropolitan Melbourne and regional Victoria bus systems in Victoria, Australia.</dc:description>
      </cc:Work>
    </rdf:RDF>
  </metadata>
  <g
     transform="translate(-16.072327,-3.4440002)"
     id="g19">
    <ellipse
       style="fill:#ffffff;fill-opacity:1;stroke-width:0.3225075"
       id="path25"
       cx="151.44864"
       cy="138.91066"
       rx="135.37631"
       ry="135.46666" />
    <path
       style="fill:#f68a24;fill-opacity:1;stroke-width:0.25241947"
       d="m 144.21463,274.15068 c -14.73352,-0.76506 -30.65042,-4.34737 -44.331893,-9.97751 -7.44463,-3.06359 -16.96413,-8.15777 -23.72743,-12.69727 -20.99117,-14.08918 -38.01882,-34.15855 -48.22651,-56.84137 -6.23005,-13.84399 -9.88787,-27.7485 -11.51345,-43.76618 -0.51236,-5.04854 -0.43581,-19.85666 0.13048,-25.24195 2.25427,-21.43731 8.90571,-40.784218 20.24446,-58.884548 11.56861,-18.46728 28.76416,-34.898487 47.82107,-45.695414 4.07419,-2.308285 12.11072,-6.198242 16.234243,-7.857942 29.94578,-12.0530413 63.69675,-12.95862529 94.19268,-2.527318 19.90678,6.809227 37.52031,17.840824 52.40131,32.819669 10.61458,10.684361 19.01684,22.485868 25.59713,35.952778 3.05971,6.261876 4.86226,10.668762 6.96355,17.024668 6.32535,19.132547 8.2706,39.149467 5.76591,59.332227 -3.27456,26.3862 -14.17882,50.88213 -31.85059,71.5508 -3.31565,3.87794 -10.06324,10.64508 -13.94004,13.98043 -23.29422,20.04085 -51.38398,31.25555 -82.28875,32.85338 -5.33473,0.27582 -7.77455,0.2714 -13.47217,-0.0245 z M 113.99227,226.7696 c 2.30768,-1.07989 3.997,-2.74198 5.14356,-5.06061 l 0.94047,-1.90186 0.0838,-5.75668 0.0838,-5.75667 h 30.12282 30.12281 l 0.0838,5.74254 0.0838,5.74254 0.80395,1.6971 c 1.11719,2.35831 2.7655,4.03761 5.09173,5.18744 1.81993,0.89958 2.01299,0.94016 4.44019,0.93346 2.02213,-0.006 2.8195,-0.12057 3.92584,-0.56614 1.90102,-0.76564 3.68691,-2.18834 4.81812,-3.83829 1.61201,-2.35123 1.79745,-3.24965 1.9347,-9.37387 l 0.12227,-5.45547 3.31467,-0.14185 c 3.85262,-0.16488 5.57589,-0.56397 8.36306,-1.93679 5.33983,-2.63014 9.12117,-7.84064 9.94809,-13.70797 0.15031,-1.0665 -0.37701,-20.92929 -1.63667,-61.64927 -1.72402,-55.731511 -1.89498,-60.218144 -2.36404,-62.043683 -0.96622,-3.76042 -3.24769,-7.413072 -6.02228,-9.641754 -1.96225,-1.576166 -5.59214,-3.34058 -7.81077,-3.796653 -1.59075,-0.327002 -8.80467,-0.367147 -55.6585,-0.309724 l -53.830893,0.06602 -2.01936,0.687691 c -2.85675,0.972868 -4.99109,2.300864 -7.21132,4.486901 -2.98359,2.937647 -4.69174,6.264385 -5.26748,10.258741 -0.13724,0.952156 -1.07272,28.518336 -2.07883,61.258181 -1.80118,58.61184 -1.82246,59.56023 -1.3844,61.68842 1.559,7.5738 7.65776,13.35861 15.2394,14.45488 0.94177,0.13618 2.5778,0.24984 3.63562,0.2526 l 1.92329,0.005 0.1249,5.49012 c 0.10981,4.82806 0.19043,5.66076 0.66845,6.90501 1.227273,3.19444 3.443253,5.381 6.562023,6.47491 2.40862,0.84482 5.3808,0.69273 7.70354,-0.39421 z M 94.490407,197.67422 c -2.68974,-0.53211 -5.1193,-2.75061 -5.9683,-5.4498 -0.39882,-1.26795 -0.40014,-2.18235 -0.0206,-14.28762 0.22301,-7.11313 0.40446,-13.30213 0.40323,-13.75333 l -0.002,-0.82036 h 61.693913 61.6939 l 0.14518,2.08246 c 0.12987,1.86283 0.59327,16.75885 0.72439,23.2857 0.0685,3.40981 -0.41322,4.80447 -2.31608,6.70532 -0.88882,0.88789 -1.87806,1.58941 -2.67309,1.89565 -1.23113,0.47419 -2.62813,0.48704 -56.92059,0.52297 -30.61218,0.0203 -56.154043,-0.0612 -56.759703,-0.18099 z m 17.237353,-6.67167 c 5.64841,-1.19658 9.31489,-6.82772 8.12224,-12.47451 -0.47592,-2.25337 -1.58997,-4.20708 -3.25907,-5.71548 -5.31025,-4.79902 -13.56171,-3.13719 -16.759873,3.37543 -0.65347,1.33071 -0.70558,1.66052 -0.70558,4.46585 0,2.83768 0.0467,3.12471 0.74033,4.54355 1.414103,2.89284 4.303563,5.15398 7.463303,5.84038 1.85549,0.40308 2.34831,0.39914 4.39865,-0.0352 z m -3.92258,-5.31552 c -1.96447,-0.605 -3.7547,-3.00479 -3.7547,-5.03319 0,-2.99495 3.2107,-5.75949 6.17307,-5.31526 2.47272,0.37081 4.67815,2.87659 4.67815,5.31526 0,2.2053 -1.83027,4.54123 -4.05902,5.18042 -1.10415,0.31667 -1.61091,0.29211 -3.0375,-0.14723 z m 85.23709,5.41868 c 2.19983,-0.40531 4.09202,-1.40097 5.67961,-2.98857 2.41146,-2.41145 3.46304,-5.60876 2.97987,-9.06013 -0.31029,-2.21635 -1.3225,-4.2091 -2.97987,-5.86646 -6.16197,-6.16198 -16.55338,-2.74431 -17.98849,5.9163 -0.87693,5.29212 2.85753,10.73564 8.15312,11.88439 2.04083,0.44271 2.33089,0.4507 4.15576,0.11447 z m -3.45341,-5.37309 c -1.49186,-0.53313 -2.41245,-1.34329 -3.10452,-2.73207 -0.84401,-1.69371 -0.83974,-3.00827 0.0154,-4.72419 0.77811,-1.56147 2.31114,-2.68301 4.01706,-2.93883 2.55029,-0.38244 5.279,1.52324 5.90248,4.12219 0.64014,2.6684 -0.98385,5.45392 -3.64697,6.2554 -1.4649,0.44087 -1.9906,0.44376 -3.1834,0.0175 z m -99.377713,-62.3149 c 0.51152,-16.13907 0.93748,-29.712929 0.94657,-30.164126 l 0.0165,-0.820367 h 28.270993 28.27098 v 30.164143 30.16412 h -29.21756 l -29.217563,1e-5 z m 62.805893,-0.82143 V 92.43107 l 28.58651,0.06421 28.5865,0.06421 0.79051,25.49438 c 0.43478,14.0219 0.86711,27.56736 0.96072,30.10102 l 0.17023,4.60665 H 182.56427 153.01704 Z M 91.599337,77.351169 c 0.0733,-2.862251 0.25864,-5.231699 0.46895,-5.994959 0.74303,-2.696593 2.63454,-4.670875 5.30556,-5.537703 1.13036,-0.366842 6.149683,-0.398249 53.750043,-0.336285 l 52.50325,0.06831 1.16679,0.539502 c 1.61568,0.74706 3.16897,2.219896 3.93966,3.735605 0.70443,1.385409 1.02833,4.335907 1.06167,9.671058 l 0.0161,2.587301 H 150.64479 91.478167 Z"
       id="path23" />
  </g>
</svg>
